<svg width="256" height="279" viewBox="0 0 256 279" fill="none" xmlns="http://www.w3.org/2000/svg">
    <path
        d="M 231.66,8.49 H 24.73 C 14.84,8.49 7.21,22.83 7.21,41.13 V 42.81 C 7.21,58.95 14.22,73.62 24.11,73.62 H 76.73 C 87.21,73.62 91.31,78.99 91.31,87.91 V 250.03 C 91.31,267.54 108.09,270.89 126.66,270.89 C 143.44,270.89 163.96,266.69 163.96,251.29 V 192.29 C 163.96,171.64 169.71,155.31 186.86,139.26 C 190.13,136.16 190.79,133.16 189.95,127.23 C 188.92,120.78 185.47,111.34 179.72,112.01 C 175.09,112.58 170.18,119.03 163.96,121.84 V 89.04 C 163.96,79.17 168.69,73.62 177.62,73.62 H 231.09 C 241.48,73.62 248.79,60.01 248.79,41.71 V 39.64 C 248.79,24.97 241.06,8.49 231.66,8.49 Z"
        fill="url(#logo_p0)" stroke="rgba(255, 255, 255, 0.2)" stroke-width="1.4173" />
    <path
        d="M 25.66,15.03 C 17.93,15.03 14.03,27.91 14.03,42.48 C 14.03,56.19 18.22,68.31 24.86,68.31 C 32.17,68.31 36.55,55.05 36.55,42.09 C 36.55,39.27 36.26,36.46 35.79,33.84 C 42.61,34.6 46.8,35.26 54.72,34.79 C 65.71,34.13 71.75,32.72 85.01,32.91 C 99.11,33.01 104.86,37.84 116.99,39.73 C 123.62,40.77 129.18,40.11 136.72,38.79 C 128.22,38.32 122.66,37.75 114.07,34.32 C 103.37,29.93 97.81,26.83 84.73,26.83 C 74.93,26.83 69.09,28.24 59.19,28.05 C 50.22,27.86 46.41,26.45 34.28,23.93 C 32.08,18.66 29.01,15.03 25.66,15.03 Z"
        fill="url(#logo_p2)" />
    <path
        d="M 231.19,14.65 C 224.65,14.65 220.02,24.12 218.79,35.89 C 207.71,37.46 188.19,38.41 187.72,39.64 C 187.06,41.61 201.92,43.59 218.23,44.91 C 218.89,57.12 223.61,67.85 230.15,67.85 C 237.68,67.85 241.96,54.88 241.96,41.43 C 241.96,28.73 237.33,14.65 231.19,14.65 Z"
        fill="url(#logo_p2)" />
    <path
        d="M 143.16,24.12 C 150.17,22.05 155.36,21.39 164.67,21.01 C 176.7,20.54 189.85,19.97 204.71,21.01 C 194.91,23.93 185.02,25.34 174.42,26.56 C 164.81,27.78 154.92,29.46 150.64,28.33 C 147.47,27.39 146.14,26.55 143.16,24.12 Z"
        fill="url(#logo_p2)" />
    <path
        d="M 57.87,53.93 C 66.08,50.11 78.31,50.68 85.03,51.43 C 102.97,53.69 115.39,66.19 115.39,88.28 C 115.39,97.21 112.13,106.98 113.26,139.92 C 108.53,121.35 108.15,111.01 108.05,90.06 C 107.96,74.01 100.13,58.41 84.75,56.15 C 76.35,54.83 71.17,54.45 57.87,53.93 Z"
        fill="url(#logo_p2)" />
    <path
        d="M 198.47,53.93 C 187.1,50.11 183.11,49.07 173.02,49.07 C 150.36,49.07 137.5,63.74 137.5,89.04 C 137.5,96.92 138.82,103.75 140.92,106.66 C 143.81,93.88 142.39,81.94 148.73,70.09 C 154.67,59.36 164.67,53.93 180.61,53.93 C 186.07,53.93 189.81,53.46 198.47,53.93 Z"
        fill="url(#logo_p2)" />
    <path
        d="M 124.89,111.06 C 122.28,110.02 122.38,120.88 123.61,130.13 C 125.03,141.37 124.47,152.81 120.48,170.12 C 122.19,172.01 130.12,151.77 130.12,134.64 C 130.12,126.47 126.96,111.91 124.89,111.06 Z"
        fill="url(#logo_p2)" />
    <path d="M 100.91,141.09 C 98.93,141.09 100.06,162.31 100.44,189.94 C 103.99,172.06 105.96,157.11 100.91,141.09 Z"
        fill="url(#logo_p2)" />
    <path
        d="M 148.83,144.09 C 141.19,158.31 138.77,173.91 140.82,188.77 C 143.43,207.43 145.15,219.08 145.71,243.04 C 150.66,220.02 147.95,202.14 146.23,187.28 C 144.62,173.15 146.04,162.02 148.83,144.09 Z"
        fill="url(#logo_p2)" />
    <path
        d="M 112.69,197.04 C 104.96,205.01 106.09,236.17 108.06,268.21 L 112.22,268.96 C 111.09,247.28 110.71,229.08 112.69,197.04 Z"
        fill="url(#logo_p2)" />
    <path
        d="M 126.04,209.73 C 124.33,210.01 127.03,229.92 126.56,242.98 C 126.18,252.75 125.99,256.95 125.99,270.11 H 132.23 C 133.36,250.48 131.94,225.16 126.04,209.73 Z"
        fill="url(#logo_p2)" />
    <defs>
        <linearGradient id="logo_p0" x1="128" y1="8.5" x2="128" y2="270.9" gradientUnits="userSpaceOnUse">
            <stop stop-color="#5e6ad2" />
            <stop offset="1" stop-color="#7b88ff" />
        </linearGradient>
        <linearGradient id="logo_p2" x1="0" y1="0" x2="1" y2="1">
            <stop stop-color="#ffffff" stop-opacity="0.8" />
            <stop offset="1" stop-color="#ffffff" stop-opacity="0.1" />
        </linearGradient>
    </defs>
</svg>